<svg version="1.0" xmlns="http://www.w3.org/2000/svg" width="853.333" height="853.333" viewBox="0 0 640 640"><path d="M32 320v320l189.3-.1c206 0 193.1.3 218.7-5.4 4.1-.9 8.6-1.8 10-2.1 1.4-.3 5-1.2 8-2 3-.9 6-1.7 6.5-1.9.6-.1 1.7-.4 2.5-.8.8-.3 4-1.3 7-2.2 11.3-3.4 22.8-7.9 33-12.8 5.8-2.8 10.7-5.4 11-5.7.3-.3 1.5-1.1 2.8-1.8 1.2-.6 3.2-1.8 4.4-2.5 4.5-2.5 17.5-12.4 24.8-18.7 19.5-16.9 35.7-38.4 45-59.5 2.3-5.4 4.3-10.2 4.4-10.9.1-.6 1-3.4 1.9-6.1.9-2.8 1.8-6.1 2.1-7.5.2-1.4.9-4.3 1.5-6.5 2-7.5 2.6-15.9 2.6-35.5 0-19.2-.7-28.7-2.5-35-.5-1.8-.8-3.5-.7-3.9.4-1.6-4.1-16.8-6.4-21.3-.5-1-.9-2.4-.9-3.1 0-.8-.7-2.9-1.6-4.8-5.8-12.2-9-18.4-9.6-18.7-.5-.2-.8-.8-.8-1.4 0-.5-2.8-5.1-6.2-10.1-7.9-11.7-25.6-29.2-37.6-37.4-10.5-7.2-28.5-16-39.2-19.2-13.8-4.2-15.5-4.9-14-5.3.8-.3 3.3-1.1 5.5-1.8 5.9-1.8 27.5-12.2 27.5-13.2 0-.4.5-.8 1.1-.8 1.1 0 15.3-10.2 18-12.9.9-.9 3.9-3.8 6.8-6.5 15.3-14.1 31.6-40.7 36.6-59.6 3.7-13.9 4.1-15.6 5.2-25.5.8-7.6.8-25.3 0-32.5-1.1-10-4.2-23.2-6.7-29.5-1.5-3.7-6.8-15.4-8.1-17.8-2-3.7-3.4-6.2-3.9-6.7-.3-.3-2.3-3.2-4.5-6.5-5.6-8.4-24.2-26.8-35.5-35.1-14.6-10.8-32.6-21-44-24.9-.3-.1-1.2-.5-2-.8-6.9-2.9-29.1-9.8-36-11.2-.8-.2-1.6-.4-1.7-.5-.4-.3-.7-.4-7.3-1.8-10.7-2.4-22.8-4.7-30-5.8-1.4-.2-3.6-.5-5-.8-1.4-.2-5.6-.7-9.5-1.1-3.8-.4-8.3-1-10-1.3-1.6-.2-81.6-.7-177.7-.9L32-.1V320z"/></svg>