<svg xmlns="http://www.w3.org/2000/svg" width="27.697" height="27.398" viewBox="0 0 27.697 27.398">
  <g id="Page_1" data-name="Page 1" transform="translate(0 -0.301)">
    <path id="Fill_1" data-name="Fill 1" d="M13.847,27.4A13.789,13.789,0,0,1,0,13.7a13.849,13.849,0,0,1,27.7,0A13.79,13.79,0,0,1,13.847,27.4Zm0-26.194A12.577,12.577,0,0,0,1.218,13.7a12.632,12.632,0,0,0,25.262,0A12.578,12.578,0,0,0,13.847,1.2Z" transform="translate(0 0.301)" fill="#007397"/>
    <path id="Fill_3" data-name="Fill 3" d="M8.267,27.4C3.709,27.4,0,21.253,0,13.7S3.709,0,8.267,0s8.265,6.145,8.265,13.7S12.825,27.4,8.267,27.4Zm0-26.194C4.38,1.2,1.218,6.809,1.218,13.7S4.38,26.194,8.267,26.194s7.047-5.605,7.047-12.495S12.153,1.2,8.267,1.2Z" transform="translate(5.581 0.301)" fill="#007397"/>
    <path id="Fill_5" data-name="Fill 5" d="M.608,27.4A.606.606,0,0,1,0,26.8V.6A.606.606,0,0,1,.608,0,13.79,13.79,0,0,1,14.458,13.7,13.79,13.79,0,0,1,.608,27.4ZM1.218,1.219V26.18a12.489,12.489,0,0,0,0-24.961Z" transform="translate(13.239 0.301)" fill="#007397"/>
    <path id="Fill_8" data-name="Fill 8" d="M26.224,10.437H1.468a.611.611,0,0,1-.57-.39A13.407,13.407,0,0,1,.9.389.612.612,0,0,1,1.472,0H26.224a.614.614,0,0,1,.57.389,13.524,13.524,0,0,1,.9,4.83,13.507,13.507,0,0,1-.9,4.829A.613.613,0,0,1,26.224,10.437ZM1.9,1.2a12.191,12.191,0,0,0,0,8.029H25.8a12.123,12.123,0,0,0,0-8.029H1.9Z" transform="translate(0 8.781)" fill="#007397"/>
  </g>
</svg>
