<svg xmlns="http://www.w3.org/2000/svg" xmlns:xlink="http://www.w3.org/1999/xlink"><symbol id="languages" viewBox="0 0 27.697 27.398"><g data-name="Page 1" fill="#007397"><path data-name="Fill 1" d="M13.847 27.4A13.789 13.789 0 010 13.7a13.85 13.85 0 0127.7 0 13.79 13.79 0 01-13.853 13.7zm0-26.194A12.577 12.577 0 001.218 13.7a12.632 12.632 0 0025.262 0A12.578 12.578 0 0013.847 1.2z"/><path data-name="Fill 3" d="M13.848 27.4c-4.558 0-8.267-6.147-8.267-13.7S9.29 0 13.848 0s8.265 6.145 8.265 13.7-3.707 13.7-8.265 13.7zm0-26.194C9.961 1.2 6.799 6.809 6.799 13.7s3.162 12.494 7.049 12.494 7.047-5.605 7.047-12.495S17.734 1.2 13.848 1.2z"/><path data-name="Fill 5" d="M13.847 27.4a.606.606 0 01-.608-.6V.6a.606.606 0 01.608-.6 13.79 13.79 0 0113.85 13.7 13.79 13.79 0 01-13.85 13.7zm.61-26.181V26.18a12.489 12.489 0 000-24.961z"/><path data-name="Fill 8" d="M26.224 18.917H1.468a.611.611 0 01-.57-.39A13.407 13.407 0 01.9 8.869a.612.612 0 01.572-.389h24.752a.614.614 0 01.57.389 13.524 13.524 0 01.9 4.83 13.507 13.507 0 01-.9 4.829.613.613 0 01-.57.389zM1.9 9.68a12.191 12.191 0 000 8.029h23.9a12.123 12.123 0 000-8.029H1.9z"/></g></symbol></svg>