<svg xmlns="http://www.w3.org/2000/svg" width="172" height="20"><path d="M158.527 19.184a14.256 14.256 0 01-4.527-2.3l2.389-4.843a14.042 14.042 0 003.676 2.129 10.157 10.157 0 003.691.9q1.551 0 1.552-1.007a1.085 1.085 0 00-.762-.986 15.547 15.547 0 00-2.449-.769 25.412 25.412 0 01-3.427-1.061 6.1 6.1 0 01-2.382-1.741 4.716 4.716 0 01-1.005-3.156A5.652 5.652 0 01156.3 3a6.516 6.516 0 012.9-2.218A11.313 11.313 0 01163.567 0a16.84 16.84 0 014.52.626A14.366 14.366 0 01172 2.313l-2.321 4.9a24.924 24.924 0 00-3.555-1.592 9.7 9.7 0 00-3.11-.694q-1.187 0-1.187.816a1.067 1.067 0 00.749.959 15.237 15.237 0 002.368.769 26.157 26.157 0 013.475 1.143 6.371 6.371 0 012.4 1.823 4.994 4.994 0 011.032 3.306 5.534 5.534 0 01-1.086 3.5 6.409 6.409 0 01-2.941 2.082A11.9 11.9 0 01163.7 20a17.262 17.262 0 01-5.173-.816zm-23 0a14.246 14.246 0 01-4.527-2.3l2.388-4.843a14.048 14.048 0 003.677 2.129 10.157 10.157 0 003.69.9q1.552 0 1.552-1.007a1.083 1.083 0 00-.762-.986 15.547 15.547 0 00-2.449-.769 25.453 25.453 0 01-3.427-1.061 6.088 6.088 0 01-2.381-1.741 4.712 4.712 0 01-1.005-3.156A5.646 5.646 0 01133.3 3a6.513 6.513 0 012.9-2.218A11.313 11.313 0 01140.566 0a16.846 16.846 0 014.521.626A14.378 14.378 0 01149 2.313l-2.321 4.9a24.936 24.936 0 00-3.556-1.592 9.7 9.7 0 00-3.109-.694q-1.188 0-1.188.816a1.069 1.069 0 00.749.959 15.237 15.237 0 002.368.769 26.069 26.069 0 013.475 1.143 6.374 6.374 0 012.4 1.823 5 5 0 011.032 3.306 5.539 5.539 0 01-1.086 3.5 6.411 6.411 0 01-2.942 2.082A11.9 11.9 0 01140.7 20a17.256 17.256 0 01-5.173-.816zM110 20V0h16.752v5.028h-10.189v2.451h9.252v5.014h-9.252v2.493H127V20zm-12.408 0L89.9 9.791V20H84V0h5.42l7.723 10.279V0H103v20zM71 20V0h7v20zm-18.473-.816a14.265 14.265 0 01-4.527-2.3l2.389-4.843a14.042 14.042 0 003.676 2.129 10.161 10.161 0 003.691.9q1.551 0 1.552-1.007a1.083 1.083 0 00-.762-.986 15.547 15.547 0 00-2.449-.769 25.453 25.453 0 01-3.427-1.061 6.088 6.088 0 01-2.382-1.737 4.712 4.712 0 01-1.005-3.156A5.646 5.646 0 0150.3 3 6.513 6.513 0 0153.2.782 11.313 11.313 0 0157.567 0a16.851 16.851 0 014.521.626A14.36 14.36 0 0166 2.313l-2.32 4.9a24.981 24.981 0 00-3.556-1.592 9.7 9.7 0 00-3.11-.694q-1.187 0-1.187.816a1.067 1.067 0 00.749.959 15.237 15.237 0 002.368.769 26.156 26.156 0 013.475 1.143 6.371 6.371 0 012.4 1.823 4.994 4.994 0 011.032 3.306 5.539 5.539 0 01-1.085 3.5 6.416 6.416 0 01-2.942 2.082A11.9 11.9 0 0157.7 20a17.262 17.262 0 01-5.173-.816zm-24.983-.248a7.867 7.867 0 01-3.358-3.021A8.593 8.593 0 0123 11.373V0h6.55v11.373a3.136 3.136 0 00.889 2.3 2.923 2.923 0 002.157.9 2.667 2.667 0 002.048-.873 3.291 3.291 0 00.807-2.328V0H42v11.373a8.748 8.748 0 01-1.158 4.54 7.742 7.742 0 01-3.289 3.021A11.014 11.014 0 0132.569 20a11.276 11.276 0 01-5.025-1.065zM0 20V0h9.766a11.943 11.943 0 014.05.626A5.974 5.974 0 0116.489 2.4a4.08 4.08 0 01.933 2.66 4.3 4.3 0 01-.879 2.64 4.558 4.558 0 01-2.372 1.629 4.731 4.731 0 012.781 1.783A5.255 5.255 0 0118 14.387a4.786 4.786 0 01-.967 2.966 6.063 6.063 0 01-2.714 1.964 11.192 11.192 0 01-4.083.683z" fill="#007397"/></svg>